# xmcd CD database file
# Copyright (C) 1995-1998 Ti Kan
#
# Track frame offsets:
#	150
#	10382
#	21132
#	32352
#	45042
#	56927
#	67177
#	79667
#	91917
#	106272
#	117107
#	130560
#	147947
#	159172
#	173245
#	189390
#	201227
#	214812
#	232172
#
# Disc length: 3250 seconds
#
# Revision: 3
# Processed by: cddbd v1.4PL0 Copyright (c) Steve Scherf et al.
# Submitted via: CDex 1.30Release
#
DISCID=f80cb013
DTITLE=John Lee Hooker - Boom Boom
DYEAR=1900
DGENRE=Blues
TTITLE0=Want Ad Blues
TTITLE1=Whiskey And Women
TTITLE2=Gotta Boogie
TTITLE3=Wednesday Evening Blues
TTITLE4=No Shoes
TTITLE5=Half A Stranger
TTITLE6=My First Wife Left Me
TTITLE7=You Ain t No Big Thing
TTITLE8=Blues Before Sunrise
TTITLE9=Boom Boom - Out Goes The Light
TTITLE10=I Wanna Walk
TTITLE11=House Rent Boogie
TTITLE12=Frisco
TTITLE13=Let s Make It
TTITLE14=Big Legs Tight Skirts
TTITLE15=Good Rockin Mama
TTITLE16=Boogie Chillen
TTITLE17=Nightmare
TTITLE18=Unknown
EXTD=ID3G:   0
EXTT0=
EXTT1=
EXTT2=
EXTT3=
EXTT4=
EXTT5=
EXTT6=
EXTT7=
EXTT8=
EXTT9=
EXTT10=
EXTT11=
EXTT12=
EXTT13=
EXTT14=
EXTT15=
EXTT16=
EXTT17=
EXTT18=
PLAYORDER=
